<?xml version="1.0" standalone="no"?><!DOCTYPE svg PUBLIC "-//W3C//DTD SVG 1.1//EN" "http://www.w3.org/Graphics/SVG/1.1/DTD/svg11.dtd"><svg t="1545463503803" class="icon" style="" viewBox="0 0 1024 1024" version="1.1" xmlns="http://www.w3.org/2000/svg" p-id="6146" xmlns:xlink="http://www.w3.org/1999/xlink" width="16" height="16"><defs><style type="text/css"></style></defs><path d="M944.649 895.238l-256.56-256.57c112.471-137.25 104.647-340.118-23.486-468.24-136.451-136.451-357.711-136.451-494.164 0.011-136.473 136.452-136.473 357.713-0.022 494.165 128.135 128.124 331.006 135.945 468.256 23.48l256.565 256.565c13.649 13.649 35.762 13.649 49.411 0 13.651-13.649 13.651-35.762 0-49.411z m-724.82-280.057c-109.152-109.164-109.152-286.155 0-395.341 109.198-109.152 286.188-109.152 395.34 0 109.197 109.186 109.197 286.177 0.023 395.352-109.175 109.174-286.166 109.162-395.363-0.011z" p-id="6147" fill="#2c2c2c"></path></svg>